<?xml version="1.0" encoding="utf-8"?>
<!-- Generator: Adobe Illustrator 25.0.0, SVG Export Plug-In . SVG Version: 6.00 Build 0)  -->
<svg version="1.1" id="Layer_1" xmlns="http://www.w3.org/2000/svg" xmlns:xlink="http://www.w3.org/1999/xlink" x="0px" y="0px"
	 viewBox="0 0 956 639.2" style="enable-background:new 0 0 956 639.2;" xml:space="preserve">
<style type="text/css">
	.st0{fill:#E6E6E6;}
	.st1{fill:#FFFFFF;}
	.st2{fill:#5145EE;}
</style>
<g>
	<rect x="126.3" y="94.5" class="st0" width="703.6" height="450.6"/>
	<rect x="146.5" y="151" class="st1" width="663.3" height="171.8"/>
	<rect x="311.5" y="175.8" class="st0" width="140.3" height="8.1"/>
	<rect x="311.5" y="205.2" class="st2" width="216.6" height="8.1"/>
	<rect x="311.5" y="232.9" class="st0" width="176.5" height="8.1"/>
	<rect x="311.5" y="260.5" class="st0" width="103.1" height="8.1"/>
	<rect x="311.5" y="288" class="st0" width="155.5" height="8.1"/>
	<rect x="247.5" y="173" class="st0" width="17.2" height="17.2"/>
	<rect x="247.5" y="200.7" class="st2" width="17.2" height="17.2"/>
	<rect x="247.5" y="228.3" class="st0" width="17.2" height="17.2"/>
	<rect x="247.5" y="256" class="st0" width="17.2" height="17.2"/>
	<rect x="247.5" y="283.7" class="st0" width="17.2" height="17.2"/>
	<rect x="659.8" y="212.1" class="st0" width="57.3" height="57.3"/>
	<rect x="146.5" y="346.7" class="st1" width="663.3" height="171.8"/>
	<rect x="277.1" y="361.9" class="st0" width="17.2" height="17.2"/>
	<rect x="247.5" y="361.9" class="st2" width="17.2" height="17.2"/>
	<path class="st0" d="M538.8,399.5c-18.3-30.9-58.2-41.2-89.1-22.9c-6,3.5-11.4,8-15.9,13.2l-4.2-3.7c25.6-29.4,70.2-32.4,99.6-6.8
		c5.7,5,10.5,10.8,14.4,17.3L538.8,399.5z"/>
	<path class="st2" d="M541.4,471.9l-4.6-3.1c13.9-20.8,14.7-47.8,2-69.3l4.8-2.8C557.4,420.1,556.5,449.3,541.4,471.9L541.4,471.9z"
		/>
	<path class="st2" d="M430.2,479.7c-23.8-26.6-24-66.7-0.6-93.5l4.2,3.7c-21.6,24.7-21.4,61.7,0.5,86.2L430.2,479.7z"/>
	<path class="st2" d="M482.8,503.2c-20.1,0-39.2-8.6-52.6-23.5l4.1-3.7c24,26.8,65.1,29,91.8,5.1c4-3.6,7.6-7.7,10.6-12.2l4.6,3.1
		C528.3,491.5,506.3,503.2,482.8,503.2z"/>
	<rect x="659.8" y="399.1" class="st0" width="57.3" height="57.3"/>
	<rect x="245.1" y="436.4" class="st0" width="57.3" height="57.3"/>
	<rect x="126" y="94.1" class="st2" width="703.6" height="29.9"/>
	<circle class="st1" cx="148.3" cy="109.4" r="5.5"/>
	<circle class="st1" cx="169.3" cy="109.4" r="5.5"/>
	<circle class="st1" cx="190.3" cy="109.4" r="5.5"/>
</g>
</svg>
